<?xml version="1.0" standalone="no"?><!DOCTYPE svg PUBLIC "-//W3C//DTD SVG 1.1//EN" "http://www.w3.org/Graphics/SVG/1.1/DTD/svg11.dtd"><svg t="1663857997916" class="icon" viewBox="0 0 1024 1024" version="1.1" xmlns="http://www.w3.org/2000/svg" p-id="1256" xmlns:xlink="http://www.w3.org/1999/xlink" width="200" height="200"><path d="M512 1024a512 512 0 1 1 512-512 512 512 0 0 1-512 512z m0-992a480 480 0 1 0 480 480A480 480 0 0 0 512 32z m96 736H416a64 64 0 0 1-64-64V320a64 64 0 0 1 64-64h192a64 64 0 0 1 64 64v384a64 64 0 0 1-64 64z m32-448a32 32 0 0 0-32-32H416a32 32 0 0 0-32 32v384a32 32 0 0 0 32 32h192a32 32 0 0 0 32-32V320z m-80 32h-96a16 16 0 0 1 0-32h96a16 16 0 0 1 0 32z m-48 256a48 48 0 1 1-48 48 48 48 0 0 1 48-48z m0 64a16 16 0 1 0-16-16 16 16 0 0 0 16 16z" p-id="1257"></path></svg>